<mxfile host="www.draw.io" modified="2020-01-02T07:06:25.569Z" agent="Mozilla/5.0 (Windows NT 6.1; Win64; x64) AppleWebKit/537.36 (KHTML, like Gecko) Chrome/79.0.3945.88 Safari/537.36" etag="qirNUXKvsxpRazeQf2OM" version="12.4.8" type="github">
  <diagram id="swLJGi5v2HPjv_KgUqqM" name="第 1 页">
    <mxGraphModel dx="609" dy="991" grid="1" gridSize="10" guides="1" tooltips="1" connect="1" arrows="1" fold="1" page="1" pageScale="1" pageWidth="1169" pageHeight="827" math="0" shadow="0">
      <root>
        <mxCell id="0"/>
        <mxCell id="1" parent="0"/>
        <mxCell id="vAtyXtitnbN9AJRjqvqJ-3" value="STM32F103RCT6&lt;br&gt;系统主控单元" style="rounded=0;whiteSpace=wrap;html=1;shadow=0;fillColor=#ffcccc;strokeColor=none;" parent="1" vertex="1">
          <mxGeometry x="1600" y="280" width="201.82" height="160" as="geometry"/>
        </mxCell>
        <mxCell id="cJSxulE8HZwPKAKGqiw1-1" value="STM32F103RCT6&lt;br&gt;系统主控单元" style="rounded=0;whiteSpace=wrap;html=1;shadow=0;fillColor=#ffcccc;strokeColor=none;" vertex="1" parent="1">
          <mxGeometry x="1600" y="160" width="200" height="80" as="geometry"/>
        </mxCell>
      </root>
    </mxGraphModel>
  </diagram>
</mxfile>
